<svg xmlns="http://www.w3.org/2000/svg" viewBox="0 0 64 64">
  <defs>
    <linearGradient id="a" x1="0" y1="0" x2="1" y2="1">
      <stop offset="0" stop-color="#ffcc02"/>
      <stop offset="1" stop-color="#e6b800"/>
    </linearGradient>
  </defs>
  <rect x="6" y="6" width="52" height="52" rx="16" fill="none" stroke="#ffffff" stroke-opacity="0.25"/>
  <path d="M18 49V19c0-2 1.6-3.6 3.6-3.6h2.6c2 0 3.6 1.6 3.6 3.6v30c0 2-1.6 3.6-3.6 3.6h-2.6C19.6 52.6 18 51 18 49Z" fill="#ffffff" fill-opacity="0.92"/>
  <path d="M37.4 49V19c0-2 1.6-3.6 3.6-3.6H43.6c2 0 3.6 1.6 3.6 3.6v30c0 2-1.6 3.6-3.6 3.6H41c-2 0-3.6-1.6-3.6-3.6Z" fill="#ffffff" fill-opacity="0.92"/>
  <path d="M21.8 38.8l8.4-8.4 4.4 4.4 8.8-8.8" fill="none" stroke="url(#a)" stroke-width="5.2" stroke-linecap="round" stroke-linejoin="round"/>
  <circle cx="45.2" cy="25.8" r="3.6" fill="#ffcc02"/>
</svg>

